<svg width="38" height="37" viewBox="0 0 38 37" fill="none" xmlns="http://www.w3.org/2000/svg">
<path d="M4.28608 37H18.2257C18.8813 37 19.4132 36.482 19.4132 35.8438C19.4132 35.5971 19.3974 25.2987 19.3958 25.0521C19.3958 24.4138 18.8638 23.8958 18.2083 23.8958H14.6458V20.0417H18.2083C18.8638 20.0417 19.3958 19.5237 19.3958 18.8854V14.5425C19.3958 10.7747 22.5451 7.70833 26.4148 7.70833H29.6875V11.5625H27.7083C26.1804 11.5625 24.9375 12.7727 24.9375 14.2604V18.8854C24.9375 19.5237 25.4695 20.0417 26.125 20.0417H30.9383L29.9488 23.8958H26.125C25.4695 23.8958 24.9375 24.4138 24.9375 25.0521V35.8438C24.9375 36.482 25.4695 37 26.125 37H33.7139C36.0778 37 38 35.1284 38 32.8267V4.17329C38 1.87158 36.0778 0 33.7139 0H4.28608C1.92217 0 0 1.87158 0 4.17329V32.8283C0 35.1284 1.92217 37 4.28608 37ZM2.375 4.17329C2.375 3.14654 3.23158 2.3125 4.28608 2.3125H33.7155C34.77 2.3125 35.6266 3.14654 35.6266 4.17329V32.8283C35.6266 33.855 34.77 34.689 33.7155 34.689H27.3125V26.2083H30.875C31.4197 26.2083 31.8947 25.8476 32.0277 25.3327L33.611 19.166C33.7978 18.4368 33.2326 17.7292 32.4583 17.7292H27.3125V14.2604C27.3125 14.0507 27.493 13.875 27.7083 13.875H30.875C31.5305 13.875 32.0625 13.357 32.0625 12.7188V6.55208C32.0625 5.91383 31.5305 5.39583 30.875 5.39583H26.4148C21.2357 5.39583 17.0208 9.49975 17.0208 14.5425V17.7292H13.4583C12.8028 17.7292 12.2708 18.2472 12.2708 18.8854V25.0521C12.2708 25.6903 12.8028 26.2083 13.4583 26.2083H17.0208V34.6875H4.28608C3.23158 34.6875 2.375 33.8535 2.375 32.8267V4.17329Z" fill="white"/>
</svg>
