<svg width="38" height="37" viewBox="0 0 38 37" fill="none" xmlns="http://www.w3.org/2000/svg">
<path d="M19.374 36.9999C19.2482 36.9999 19.1223 36.9999 18.9957 36.9993C16.017 37.0064 13.2649 36.9327 10.5883 36.7741C8.13449 36.6287 5.89459 35.803 4.11044 34.3865C2.38892 33.0197 1.2133 31.1715 0.616364 28.894C0.0968323 26.9112 0.0692902 24.9649 0.0429077 23.0823C0.0237732 21.7315 0.00405884 20.131 0 18.5033C0.00405884 16.8688 0.0237732 15.2683 0.0429077 13.9175C0.0692902 12.0352 0.0968323 10.0889 0.616364 8.10579C1.2133 5.82829 2.38892 3.98015 4.11044 2.61332C5.89459 1.1968 8.13449 0.371105 10.5886 0.225726C13.2652 0.067363 16.0179 -0.00659642 19.0029 0.000460774C21.9824 -0.00574956 24.7337 0.067363 27.4102 0.225726C29.8641 0.371105 32.104 1.1968 33.8881 2.61332C35.6099 3.98015 36.7852 5.82829 37.3822 8.10579C37.9017 10.0886 37.9293 12.0352 37.9556 13.9175C37.9748 15.2683 37.9948 16.8688 37.9986 18.4965C37.9948 20.131 37.9748 21.7315 37.9556 23.0823C37.9446 23.8806 37.2674 24.5186 36.4513 24.5078C35.6314 24.4968 34.9762 23.8408 34.9872 23.0428C35.006 21.6999 35.026 20.1098 35.0298 18.4965C35.026 16.89 35.006 15.2999 34.9872 13.957C34.9631 12.2433 34.9382 10.4711 34.5056 8.82054C34.0693 7.15561 33.2303 5.82095 32.0121 4.85355C30.6944 3.80711 29.0853 3.2208 27.2299 3.11099C24.6163 2.9563 21.9258 2.88488 19.0029 2.8908C16.073 2.88403 13.3823 2.9563 10.7687 3.11099C8.91321 3.2208 7.30446 3.80711 5.9865 4.85327C4.76826 5.82067 3.92924 7.15533 3.49292 8.82054C3.06036 10.4711 3.03543 12.2433 3.01137 13.957C2.99252 15.2999 2.97281 16.89 2.96875 18.5033C2.97281 20.1098 2.99252 21.6999 3.01137 23.0428C3.03543 24.7565 3.06036 26.5287 3.49292 28.1793C3.92924 29.8442 4.76826 31.1789 5.9865 32.1463C7.30446 33.1927 8.91321 33.779 10.7687 33.8888C13.3823 34.0435 16.0736 34.1158 18.9959 34.1087C21.9261 34.1155 24.6163 34.0435 27.2299 33.8888C29.0853 33.779 30.6941 33.1927 32.0121 32.1463C32.8896 31.4493 33.5753 30.555 34.0499 29.488C34.3757 28.7557 35.2496 28.4189 36.0019 28.7362C36.7542 29.0535 37.0998 29.9043 36.7742 30.6369C36.1089 32.1327 35.1379 33.3942 33.8881 34.3865C32.104 35.8033 29.8641 36.6287 27.4102 36.7741C24.847 36.926 22.214 36.9999 19.374 36.9999ZM28.2023 18.4999C28.2023 13.5189 24.0405 9.4667 18.9249 9.4667C13.8096 9.4667 9.64757 13.5189 9.64757 18.4999C9.64757 23.4809 13.8096 27.5331 18.9249 27.5331C24.0405 27.5331 28.2023 23.4809 28.2023 18.4999ZM25.2335 18.4999C25.2335 21.8868 22.4036 24.6425 18.9249 24.6425C15.4465 24.6425 12.6163 21.8868 12.6163 18.4999C12.6163 15.113 15.4465 12.3573 18.9249 12.3573C22.4036 12.3573 25.2335 15.113 25.2335 18.4999ZM29.2413 6.57607C28.0118 6.57607 27.0148 7.54658 27.0148 8.74404C27.0148 9.94151 28.0118 10.912 29.2413 10.912C30.4711 10.912 31.4679 9.94151 31.4679 8.74404C31.4679 7.54658 30.4711 6.57607 29.2413 6.57607Z" fill="white"/>
</svg>
