<svg width="266" height="102" viewBox="0 0 266 102" fill="none" xmlns="http://www.w3.org/2000/svg">
<path d="M82.9042 93.5721C76.1779 93.5721 70.6986 88.9358 70.6986 83.2319C70.7193 81.8478 71.0417 80.4847 71.6435 79.2367C72.2453 77.9886 73.1123 76.8853 74.1845 76.0029C76.6175 73.9506 79.7143 72.8421 82.9042 72.8815C83.4112 72.8815 83.8975 72.6812 84.256 72.3246C84.6144 71.968 84.8159 71.4844 84.8159 70.9802C84.8159 70.4759 84.6144 69.9923 84.256 69.6357C83.8975 69.2792 83.4112 69.0789 82.9042 69.0789H16.0391C11.9203 69.0409 7.92655 70.4853 4.79433 73.1458C3.30873 74.3838 2.11077 75.9275 1.28307 77.6706C0.455361 79.4136 0.01761 81.3145 0 83.242C0 91.0506 7.15573 97.3951 16.0391 97.3951H82.9042C83.1677 97.4142 83.4323 97.3791 83.6816 97.292C83.9308 97.2049 84.1593 97.0676 84.3528 96.8887C84.5463 96.7098 84.7006 96.4931 84.8061 96.2522C84.9117 96.0114 84.9661 95.7515 84.9661 95.4887C84.9661 95.2259 84.9117 94.966 84.8061 94.7251C84.7006 94.4842 84.5463 94.2676 84.3528 94.0887C84.1593 93.9098 83.9308 93.7725 83.6816 93.6854C83.4323 93.5982 83.1677 93.5632 82.9042 93.5823V93.5721ZM8.9651 83.2319C8.99667 82.1874 9.25083 81.1615 9.71077 80.222C10.1707 79.2826 10.826 78.451 11.6332 77.7822C13.6346 76.1097 16.1751 75.2108 18.7889 75.2505H63.1749C63.659 75.2857 64.1119 75.5018 64.4424 75.8554C64.7729 76.2091 64.9566 76.674 64.9566 77.1569C64.9566 77.6397 64.7729 78.1047 64.4424 78.4583C64.1119 78.8119 63.659 79.0281 63.1749 79.0633H18.7889C17.0977 79.0245 15.4495 79.595 14.1479 80.6697C13.9195 80.873 13.7075 81.094 13.5141 81.3306H63.1851C63.4486 81.3114 63.7132 81.3465 63.9624 81.4336C64.2117 81.5208 64.4402 81.6581 64.6336 81.837C64.8271 82.0159 64.9815 82.2325 65.087 82.4734C65.1925 82.7143 65.247 82.9742 65.247 83.237C65.247 83.4997 65.1925 83.7597 65.087 84.0005C64.9815 84.2414 64.8271 84.4581 64.6336 84.637C64.4402 84.8159 64.2117 84.9532 63.9624 85.0403C63.7132 85.1274 63.4486 85.1625 63.1851 85.1433H13.5141C14.1708 85.8855 14.984 86.4744 15.8958 86.868C16.8075 87.2617 17.7954 87.4505 18.7889 87.4209H63.1851C63.6921 87.4209 64.1783 87.6212 64.5368 87.9777C64.8953 88.3343 65.0967 88.8179 65.0967 89.3222C65.0967 89.8264 64.8953 90.31 64.5368 90.6666C64.1783 91.0231 63.6921 91.2235 63.1851 91.2235H18.7889C13.371 91.2133 8.9651 87.6344 8.9651 83.2319Z" fill="#FBFBFB"/>
<path d="M23.8675 61.7268V63.0177C23.8702 63.5268 24.073 64.014 24.4314 64.373C24.7898 64.732 25.2748 64.9335 25.7804 64.9335H50.9834C51.4889 64.9335 51.9739 64.732 52.3324 64.373C52.6908 64.014 52.8935 63.5268 52.8962 63.0177V61.7268C55.3587 60.4019 57.6343 58.7515 59.6625 56.8194H59.052C58.6707 56.8241 58.2974 56.7096 57.9836 56.4916C58.2997 56.7049 58.6715 56.8189 59.052 56.8194H67.3851C70.0315 56.8167 72.5688 55.7569 74.4401 53.8727C76.3114 51.9885 77.3639 49.4337 77.3666 46.769V38.368C77.3666 37.8599 77.1661 37.3726 76.8093 37.0133C76.4525 36.654 75.9685 36.4521 75.4639 36.4521H67.2529C66.8141 36.4529 66.3891 36.6062 66.0498 36.8863C65.7104 37.1663 65.4777 37.5559 65.3909 37.9889C65.4756 37.554 65.7075 37.1621 66.047 36.88C66.3865 36.5979 66.8127 36.4431 67.2529 36.4419H69.1047C69.1047 35.7657 69.1657 35.0691 69.1657 34.3929C69.1657 33.8821 68.9642 33.3921 68.6054 33.0309C68.2467 32.6697 67.7602 32.4668 67.2529 32.4668H9.51091C9.00358 32.4668 8.51704 32.6697 8.15831 33.0309C7.79958 33.3921 7.59805 33.8821 7.59805 34.3929C7.56976 40.0111 9.07142 45.5297 11.9398 50.3488C14.8082 55.1679 18.9336 59.1031 23.8675 61.7268ZM17.1827 51.2153L17.5897 51.7071L17.1827 51.2153ZM18.2002 52.4038C18.3528 52.5779 18.5156 52.7419 18.6682 52.9058C18.4851 52.7419 18.3223 52.5779 18.1697 52.4038H18.2002ZM19.2177 53.541C19.3805 53.7151 19.5636 53.8791 19.7468 54.043C19.584 53.8791 19.4008 53.7151 19.238 53.541H19.2177ZM65.0754 38.1119H65.2688H65.0754C64.5147 42.2827 62.9881 46.2623 60.6189 49.7298C62.9994 46.2664 64.5334 42.2856 65.0958 38.1119H65.0754ZM60.3645 50.1396L60.2526 50.2933L60.3645 50.1396ZM73.5409 40.2941V46.769C73.5409 47.5851 73.3811 48.3933 73.0706 49.1472C72.7601 49.9012 72.305 50.586 71.7313 51.1627C71.1577 51.7393 70.4767 52.1964 69.7275 52.5078C68.9782 52.8192 68.1754 52.9788 67.3648 52.9775H63.0608C65.8459 49.231 67.7428 44.8924 68.6061 40.2941H73.5409ZM11.4746 36.7083V36.3087V35.2842H17.4065C17.4065 35.6223 17.4065 35.9501 17.4065 36.3087C17.4065 45.6522 23.9591 56.8911 24.3763 57.5673L24.2847 57.5058L24.183 57.4341C23.7251 57.1472 23.2876 56.8604 22.8602 56.553C23.2876 56.8604 23.7251 57.1472 24.183 57.4341C20.7338 55.0931 17.8205 52.0379 15.6377 48.4726C13.455 44.9073 12.053 40.914 11.5255 36.7595V37.0156C11.52 36.9303 11.52 36.8448 11.5255 36.7595L11.4746 36.7083ZM20.3165 54.6167L20.9067 55.1085L20.3165 54.6167ZM21.507 55.6412L22.1989 56.1535L21.507 55.6412ZM16.5519 50.4469C16.4399 50.2933 16.3178 50.1396 16.2161 49.9859C16.3687 50.1294 16.4908 50.283 16.6027 50.4367L16.5519 50.4469ZM15.6361 49.1048L15.3716 48.695L15.6361 49.1048ZM14.8323 47.691L14.639 47.3529L14.8323 47.691ZM14.0896 46.2362C14.0896 46.144 13.998 46.0621 13.9573 45.9699C14.0082 46.0621 14.0489 46.144 14.0997 46.2362H14.0896ZM13.4282 44.7507C13.4282 44.679 13.3672 44.6175 13.3468 44.556C13.3265 44.4946 13.4079 44.679 13.4384 44.7507H13.4282ZM12.8584 43.2242C12.8584 43.2242 12.8584 43.1422 12.8584 43.1012C12.8584 43.0602 12.8584 43.1832 12.8686 43.2242H12.8584ZM12.3904 41.6772C12.386 41.6535 12.386 41.6291 12.3904 41.6054C12.3893 41.6298 12.3927 41.6541 12.4006 41.6772H12.3904Z" fill="#FFFFFE"/>
<path d="M27.9528 16.8108H42.5462C42.7229 16.8065 42.8987 16.8385 43.0627 16.905C43.2267 16.9714 43.3755 17.0708 43.5001 17.1971C43.6246 17.3234 43.7222 17.474 43.7869 17.6396C43.8517 17.8052 43.8822 17.9823 43.8766 18.1602V18.6443C43.8766 18.9885 43.7407 19.3187 43.4989 19.5621C43.2571 19.8055 42.9291 19.9422 42.5871 19.9422H42.1266C40.7695 19.9422 39.468 20.4848 38.5084 21.4507C37.5488 22.4166 37.0097 23.7266 37.0097 25.0926V28.3167C36.9904 28.5822 37.0257 28.8488 37.1134 29.1C37.2011 29.3511 37.3393 29.5814 37.5194 29.7763C37.6994 29.9713 37.9175 30.1268 38.1599 30.2332C38.4024 30.3395 38.664 30.3944 38.9285 30.3944C39.193 30.3944 39.4546 30.3395 39.6971 30.2332C39.9395 30.1268 40.1576 29.9713 40.3377 29.7763C40.5177 29.5814 40.6559 29.3511 40.7436 29.1C40.8313 28.8488 40.8666 28.5822 40.8473 28.3167V25.0926C40.846 24.9226 40.8781 24.7541 40.9418 24.5967C41.0055 24.4393 41.0995 24.2961 41.2184 24.1754C41.3373 24.0548 41.4788 23.959 41.6347 23.8937C41.7905 23.8283 41.9577 23.7947 42.1266 23.7947H42.5462C43.9032 23.7947 45.2048 23.2521 46.1644 22.2862C47.124 21.3203 47.6631 20.0103 47.6631 18.6443V18.1602C47.6631 16.7942 47.124 15.4842 46.1644 14.5183C45.2048 13.5524 43.9032 13.0098 42.5462 13.0098H27.9118C27.591 12.981 27.2925 12.8323 27.0751 12.593C26.8577 12.3538 26.7371 12.0413 26.7371 11.7171C26.7371 11.3929 26.8577 11.0804 27.0751 10.8411C27.2925 10.6019 27.591 10.4532 27.9118 10.4243H42.5462C43.9032 10.4243 45.2048 9.88171 46.1644 8.91583C47.124 7.94995 47.6631 6.63994 47.6631 5.27398V5.15036C47.6631 3.7844 47.124 2.4744 46.1644 1.50852C45.2048 0.542638 43.9032 0 42.5462 0H38.8825C38.3978 0.0356526 37.9444 0.254616 37.6135 0.612895C37.2827 0.971173 37.0987 1.44222 37.0987 1.93139C37.0987 2.42056 37.2827 2.8916 37.6135 3.24988C37.9444 3.60816 38.3978 3.82712 38.8825 3.86277H42.5462C42.8864 3.86276 43.2128 3.99809 43.4543 4.23927C43.6959 4.48045 43.8329 4.80793 43.8356 5.15036V5.27398C43.8329 5.61737 43.6962 5.94593 43.455 6.18875C43.2137 6.43157 42.8873 6.56918 42.5462 6.57187H27.9118C26.5547 6.57187 25.2532 7.11449 24.2936 8.08037C23.334 9.04625 22.7949 10.3563 22.7949 11.7222C22.7949 13.0882 23.334 14.3982 24.2936 15.3641C25.2532 16.33 26.5547 16.8726 27.9118 16.8726L27.9528 16.8108Z" fill="white"/>
<path d="M100.867 47.6C100.867 45.952 101.235 44.48 101.971 43.184C102.723 41.872 103.739 40.856 105.019 40.136C106.315 39.4 107.763 39.032 109.363 39.032C111.235 39.032 112.875 39.512 114.283 40.472C115.691 41.432 116.675 42.76 117.235 44.456H113.371C112.987 43.656 112.443 43.056 111.739 42.656C111.051 42.256 110.251 42.056 109.339 42.056C108.363 42.056 107.491 42.288 106.723 42.752C105.971 43.2 105.379 43.84 104.947 44.672C104.531 45.504 104.323 46.48 104.323 47.6C104.323 48.704 104.531 49.68 104.947 50.528C105.379 51.36 105.971 52.008 106.723 52.472C107.491 52.92 108.363 53.144 109.339 53.144C110.251 53.144 111.051 52.944 111.739 52.544C112.443 52.128 112.987 51.52 113.371 50.72H117.235C116.675 52.432 115.691 53.768 114.283 54.728C112.891 55.672 111.251 56.144 109.363 56.144C107.763 56.144 106.315 55.784 105.019 55.064C103.739 54.328 102.723 53.312 101.971 52.016C101.235 50.72 100.867 49.248 100.867 47.6ZM137.817 52.808H131.145L130.041 56H126.513L132.537 39.224H136.449L142.473 56H138.921L137.817 52.808ZM136.905 50.12L134.481 43.112L132.057 50.12H136.905ZM162.509 39.248V41.96H155.525V46.256H160.877V48.92H155.525V56H152.165V39.248H162.509ZM175.691 41.96V46.16H181.331V48.824H175.691V53.264H182.051V56H172.331V39.224H182.051V41.96H175.691Z" fill="white"/>
<path d="M111.127 83.3279C112.071 83.5039 112.847 83.9759 113.455 84.7439C114.063 85.5119 114.367 86.3919 114.367 87.3839C114.367 88.2799 114.143 89.0719 113.695 89.7599C113.263 90.4319 112.631 90.9599 111.799 91.3439C110.967 91.7279 109.983 91.9199 108.847 91.9199H101.623V75.1679H108.535C109.671 75.1679 110.647 75.3519 111.463 75.7199C112.295 76.0879 112.919 76.5999 113.335 77.2559C113.767 77.9119 113.983 78.6559 113.983 79.4879C113.983 80.4639 113.719 81.2799 113.191 81.9359C112.679 82.5919 111.991 83.0559 111.127 83.3279ZM104.983 82.0799H108.055C108.855 82.0799 109.471 81.9039 109.903 81.5519C110.335 81.1839 110.551 80.6639 110.551 79.9919C110.551 79.3199 110.335 78.7999 109.903 78.4319C109.471 78.0639 108.855 77.8799 108.055 77.8799H104.983V82.0799ZM108.367 89.1839C109.183 89.1839 109.815 88.9919 110.263 88.6079C110.727 88.2239 110.959 87.6799 110.959 86.9759C110.959 86.2559 110.719 85.6959 110.239 85.2959C109.759 84.8799 109.111 84.6719 108.295 84.6719H104.983V89.1839H108.367ZM123.045 75.1679V91.9199H119.685V75.1679H123.045ZM138.508 83.3279C139.452 83.5039 140.228 83.9759 140.836 84.7439C141.444 85.5119 141.748 86.3919 141.748 87.3839C141.748 88.2799 141.524 89.0719 141.076 89.7599C140.644 90.4319 140.012 90.9599 139.18 91.3439C138.348 91.7279 137.364 91.9199 136.228 91.9199H129.004V75.1679H135.916C137.052 75.1679 138.028 75.3519 138.844 75.7199C139.676 76.0879 140.3 76.5999 140.716 77.2559C141.148 77.9119 141.364 78.6559 141.364 79.4879C141.364 80.4639 141.1 81.2799 140.572 81.9359C140.06 82.5919 139.372 83.0559 138.508 83.3279ZM132.364 82.0799H135.436C136.236 82.0799 136.852 81.9039 137.284 81.5519C137.716 81.1839 137.932 80.6639 137.932 79.9919C137.932 79.3199 137.716 78.7999 137.284 78.4319C136.852 78.0639 136.236 77.8799 135.436 77.8799H132.364V82.0799ZM135.748 89.1839C136.564 89.1839 137.196 88.9919 137.644 88.6079C138.108 88.2239 138.34 87.6799 138.34 86.9759C138.34 86.2559 138.1 85.6959 137.62 85.2959C137.14 84.8799 136.492 84.6719 135.676 84.6719H132.364V89.1839H135.748ZM150.426 89.2559H155.946V91.9199H147.066V75.1679H150.426V89.2559ZM164.082 75.1679V91.9199H160.722V75.1679H164.082ZM177.818 92.0879C176.25 92.0879 174.81 91.7199 173.498 90.9839C172.186 90.2479 171.146 89.2319 170.378 87.9359C169.61 86.6239 169.226 85.1439 169.226 83.4959C169.226 81.8639 169.61 80.3999 170.378 79.1039C171.146 77.7919 172.186 76.7679 173.498 76.0319C174.81 75.2959 176.25 74.9279 177.818 74.9279C179.402 74.9279 180.842 75.2959 182.138 76.0319C183.45 76.7679 184.482 77.7919 185.234 79.1039C186.002 80.3999 186.386 81.8639 186.386 83.4959C186.386 85.1439 186.002 86.6239 185.234 87.9359C184.482 89.2319 183.45 90.2479 182.138 90.9839C180.826 91.7199 179.386 92.0879 177.818 92.0879ZM177.818 89.0879C178.826 89.0879 179.714 88.8639 180.482 88.4159C181.25 87.9519 181.85 87.2959 182.282 86.4479C182.714 85.5999 182.93 84.6159 182.93 83.4959C182.93 82.3759 182.714 81.3999 182.282 80.5679C181.85 79.7199 181.25 79.0719 180.482 78.6239C179.714 78.1759 178.826 77.9519 177.818 77.9519C176.81 77.9519 175.914 78.1759 175.13 78.6239C174.362 79.0719 173.762 79.7199 173.33 80.5679C172.898 81.3999 172.682 82.3759 172.682 83.4959C172.682 84.6159 172.898 85.5999 173.33 86.4479C173.762 87.2959 174.362 87.9519 175.13 88.4159C175.914 88.8639 176.81 89.0879 177.818 89.0879Z" fill="#D5D5D5"/>
</svg>
